HIERARCHY
ROOT Hips
{
    OFFSET 0.000000 0.000000 0.000000
    CHANNELS 6 Xposition Yposition Zposition Zrotation Xrotation Yrotation
        JOINT Chest
        {
            OFFSET -0.000000 31.804140 -0.000000
            CHANNELS 3 Zrotation Xrotation Yrotation
            JOINT Neck
            {
                OFFSET -0.000000 23.903318 0.000000
                CHANNELS 3 Zrotation Xrotation Yrotation
                JOINT Head
                {
                    OFFSET -0.000000 10.511110 0.000000
                    CHANNELS 3 Zrotation Xrotation Yrotation
                    End Site
                    {
                        OFFSET -0.000000 16.244448 0.000000
                    }
                }
            }
            JOINT LeftCollar
            {
                OFFSET -0.000000 23.903318 0.000000
                CHANNELS 3 Zrotation Xrotation Yrotation
                JOINT LeftShoulder
                {
                    OFFSET 20.500000 -0.000000 0.000000
                    CHANNELS 3 Zrotation Xrotation Yrotation
                    JOINT LeftElbow
                    {
                        OFFSET 20.922438 0.000000 0.000000
                        CHANNELS 3 Zrotation Xrotation Yrotation
                        JOINT LeftWrist
                        {
                            OFFSET 26.373112 0.000000 0.000000
                            CHANNELS 3 Zrotation Xrotation Yrotation
                            End Site
                            {
                                OFFSET 0.000000 -14.333333 0.000000
                            }
                        }
                    }
                }
            }
            JOINT RightCollar
            {
                OFFSET -0.000000 23.903318 0.000000
                CHANNELS 3 Zrotation Xrotation Yrotation
                JOINT RightShoulder
                {
                    OFFSET -20.500000 0.000000 0.000000
                    CHANNELS 3 Zrotation Xrotation Yrotation
                    JOINT RightElbow
                    {
                        OFFSET -20.922438 0.000000 0.000000
                        CHANNELS 3 Zrotation Xrotation Yrotation
                        JOINT RightWrist
                        {
                            OFFSET -26.373112 0.000000 0.000000
                            CHANNELS 3 Zrotation Xrotation Yrotation
                            End Site
                            {
                                OFFSET -0.000000 -14.333333 0.000000
                            }
                        }
                    }
                }
            }
        }
    JOINT LeftHip
    {
        OFFSET 11.466667 0.000000 0.000000
        CHANNELS 3 Zrotation Xrotation Yrotation
        JOINT LeftKnee
        {
            OFFSET -0.000000 -37.458855 0.000000
            CHANNELS 3 Zrotation Xrotation Yrotation
            JOINT LeftAnkle
            {
                OFFSET -0.000000 -39.235966 0.000000
                CHANNELS 3 Zrotation Xrotation Yrotation
                End Site
                {
                    OFFSET -0.000000 -4.777778 16.244448
                }
            }
        }
    }
    JOINT RightHip
    {
        OFFSET -11.466667 0.000000 0.000000
        CHANNELS 3 Zrotation Xrotation Yrotation
        JOINT RightKnee
        {
            OFFSET -0.000000 -37.458855 0.000000
            CHANNELS 3 Zrotation Xrotation Yrotation
            JOINT RightAnkle
            {
                OFFSET -0.000000 -39.235966 0.000000
                CHANNELS 3 Zrotation Xrotation Yrotation
                End Site
                {
                    OFFSET -0.000000 -4.777778 16.244448
                }
            }
        }
    }
}
MOTION
Frames:    10
Frame Time:    0.010000
74.517990    86.089943    -73.865906    -3.179656    -0.355126    -37.169968    2.783744    23.254553    -0.645883    -12.239285    -0.476964    -3.558187    9.502928    -13.728265    -2.494811    -9.132209    0.085913    -0.646704    -59.618210    22.541847    -24.246382    -10.850310    10.420927    -87.487328    147.933578    -11.590138    20.625776    18.543476    0.998614    6.232267    40.034348    44.845795    21.483784    2.545543    1.979974    76.529564    -137.482819    -36.015362    9.391797    21.883236    -3.683403    6.430238    -17.424397    25.803844    24.328463    -10.727341    -1.902479    5.207993    -6.107012    -13.877860    -7.456930    2.300296    35.023067    -17.103712    8.583485    -8.256183    -1.431689    
74.520454    86.209167    -73.914246    -3.145817    -0.146253    -37.116173    3.060390    23.099579    -0.693918    -12.019486    -0.283161    -3.684694    9.276290    -14.667924    -2.463573    -9.152479    0.114208    -1.134624    -59.580715    22.509447    -23.887323    -10.798205    10.354241    -87.784447    147.557343    -11.611892    20.448837    18.458187    0.949878    5.755406    39.899334    45.291203    21.662039    2.308851    1.675135    76.671501    -137.852371    -35.824158    9.271739    21.877556    -3.891299    6.325925    -17.373814    25.704613    24.349340    -10.669930    -1.887220    5.513901    -5.966062    -14.064475    -7.164693    2.384734    34.851528    -17.322182    8.553594    -7.616910    -1.563468    
74.550369    86.179909    -73.905495    -3.075657    -0.113281    -36.999477    3.126363    23.081011    -0.840019    -12.003421    -0.316354    -3.634397    9.300028    -14.724130    -2.393618    -9.120968    0.093823    -1.041063    -59.294918    23.252945    -24.078642    -10.390665    9.683269    -88.087288    147.176315    -11.646416    20.459084    18.359808    0.939956    5.764539    40.071877    45.041870    21.540131    2.531018    2.111975    76.669151    -138.214935    -36.169758    9.093720    21.719692    -4.063570    5.924749    -17.448967    25.657721    24.752808    -10.588363    -2.085442    5.573231    -6.137521    -14.370579    -7.496776    2.366640    35.330837    -17.077478    8.656737    -7.847606    -1.609837    
74.563812    86.189140    -73.917137    -3.059738    -0.067576    -36.932369    3.232505    23.065681    -0.920336    -12.057407    -0.323988    -3.592134    9.329250    -14.747512    -2.346335    -9.134180    0.074274    -1.006506    -59.208736    23.462107    -24.060570    -10.081491    9.494012    -88.280914    147.162552    -11.384837    20.662786    18.269030    0.896341    5.781960    40.169918    45.118931    21.464058    2.597545    2.095331    76.729652    -138.244507    -36.362579    9.170133    21.661024    -4.168445    5.748049    -17.481321    25.664370    24.873177    -10.513570    -2.251728    5.720047    -6.154344    -14.494497    -7.573092    2.354061    35.481617    -17.038866    8.663795    -7.865585    -1.630737    
74.575035    86.178795    -73.926399    -3.056061    -0.040130    -36.858120    3.346547    23.064507    -1.006810    -12.068781    -0.290587    -3.568853    9.328543    -14.777207    -2.324730    -9.133226    0.102238    -1.034839    -59.110020    23.632036    -24.070894    -9.848067    9.363380    -88.424049    147.163956    -11.175136    20.868195    18.177069    0.915160    5.767871    40.294464    45.101395    21.383459    2.710421    2.208103    76.756523    -138.450378    -36.513382    9.187969    21.603119    -4.267064    5.565894    -17.536736    25.715425    24.999052    -10.418846    -2.499109    5.874142    -6.173053    -14.603390    -7.687348    2.320968    35.672722    -16.996912    8.649858    -7.961471    -1.610341    
74.580986    86.138809    -73.930527    -3.070928    -0.040696    -36.779633    3.473926    23.088493    -1.098406    -12.100273    -0.243477    -3.529800    9.346463    -14.800714    -2.285407    -9.136468    0.082511    -1.037460    -59.025425    23.815638    -24.061609    -9.611678    9.165195    -88.633575    147.026779    -11.074482    21.013096    18.079737    0.945068    5.802741    40.420868    45.062740    21.292761    2.791094    2.264381    76.811600    -138.629181    -36.671326    9.228781    21.552130    -4.350387    5.386290    -17.622284    25.825947    25.133282    -10.305164    -2.837828    6.024597    -6.193996    -14.685785    -7.842951    2.265393    35.909515    -16.961712    8.609677    -8.146603    -1.532710    
74.579453    86.060364    -73.926834    -3.110300    -0.078738    -36.700062    3.605052    23.142378    -1.191132    -12.099379    -0.150376    -3.495038    9.335532    -14.824556    -2.261352    -9.133867    0.102249    -1.067152    -58.926647    23.947937    -24.090288    -9.443352    9.085158    -88.746552    147.055527    -10.942753    21.239239    18.004284    0.909253    5.842581    40.576595    45.048866    21.141218    2.823604    2.229500    76.907143    -138.813293    -36.815407    9.270660    21.512852    -4.409681    5.212805    -17.743715    26.007359    25.279840    -10.175558    -3.271553    6.163971    -6.219800    -14.732268    -8.038804    2.190258    36.197571    -16.941353    8.541419    -8.422678    -1.390715    
74.569450    85.937325    -73.913300    -3.178266    -0.161523    -36.623577    3.729796    23.232080    -1.281404    -12.068251    -0.009083    -3.461293    9.297675    -14.853185    -2.243734    -9.133877    0.067979    -1.105965    -58.817387    24.118338    -24.106007    -9.270222    8.933753    -88.907982    147.003098    -10.905728    21.413607    17.946314    0.943067    5.898103    40.735615    44.925545    20.977850    2.924547    2.373785    76.946037    -139.217102    -36.901588    9.234197    21.488281    -4.438185    5.045506    -17.904873    26.266256    25.441450    -10.034297    -3.796056    6.289903    -6.255360    -14.738563    -8.269899    2.102893    36.541950    -16.935995    8.444324    -8.781322    -1.190150    
74.551285    85.767456    -73.889267    -3.274554    -0.291247    -36.557064    3.828068    23.358967    -1.360396    -11.985234    0.192826    -3.435606    9.216110    -14.894340    -2.247452    -9.136949    0.102311    -1.169887    -58.632736    24.271044    -24.217180    -9.163669    8.903575    -88.936508    147.201630    -10.796329    21.689297    17.934586    0.913724    5.945246    40.861008    44.838692    20.801321    2.958482    2.344775    77.041985    -139.529358    -37.007713    9.234340    21.480125    -4.434421    4.889447    -18.105482    26.606390    25.610634    -9.886399    -4.398057    6.407052    -6.306382    -14.709773    -8.526948    2.012558    36.947166    -16.936178    8.318959    -9.205477    -0.949790    
74.526581    85.553543    -73.856010    -3.393337    -0.463158    -36.510590    3.936094    23.520935    -1.430309    -11.981908    0.385399    -3.351395    9.203006    -14.927876    -2.180091    -9.185288    0.083473    -1.077499    -58.361538    24.533251    -24.401070    -9.007911    8.720109    -89.039894    147.324814    -10.751398    21.912962    17.935743    0.948301    6.128147    40.950241    44.694691    20.621227    3.049654    2.476159    77.070488    -140.030762    -37.059048    9.153852    21.490425    -4.405009    4.757532    -18.342726    27.029846    25.771351    -9.736619    -5.052741    6.524368    -6.377886    -14.662569    -8.796781    1.928726    37.415833    -16.925623    8.168580    -9.670497    -0.698517    
